<svg id="Capa_1" enable-background="new 0 0 512 512" height="512" viewBox="0 0 512 512" width="512" xmlns="http://www.w3.org/2000/svg"><g><path d="m282.607 53.393c-5.857-5.858-15.355-5.858-21.213 0s-5.858 15.355 0 21.213l29.393 29.394-46.787 46.787 117.213 117.213 46.787-46.787 29.394 29.394c2.928 2.929 6.767 4.393 10.606 4.393 13.244 0 20.082-16.131 10.606-25.607-49.813-49.813 51.102 51.102-175.999-176z"/><path d="m222.787 172-35.287 35.287 39.106 39.106c9.478 9.478 2.636 25.607-10.606 25.607-3.839 0-7.678-1.464-10.606-4.393l-39.107-39.107-34.787 34.787 39.106 39.106c9.478 9.478 2.636 25.607-10.606 25.607-3.839 0-7.678-1.464-10.606-4.393l-39.107-39.107-19.68 19.68c-17.587 17.586-17.589 46.052 0 63.639l16.18 16.18-102.393 102.394c-5.858 5.858-5.858 15.355 0 21.213 5.857 5.857 15.355 5.858 21.213 0l102.393-102.393 16.18 16.18c17.544 17.545 46.094 17.546 63.64 0l132.18-132.18z"/><path d="m507.607 118.393c-11.957-11.957-101.399-101.399-114-114-5.857-5.858-15.355-5.858-21.213 0s-5.858 15.355 0 21.213l18.393 18.394-37.569 37.569 77.213 77.213 37.569-37.569 18.394 18.394c5.857 5.857 15.355 5.858 21.213 0 5.857-5.858 5.857-15.356 0-21.214z"/></g></svg>